<svg width="65" height="65" viewBox="0 0 65 65" fill="none" xmlns="http://www.w3.org/2000/svg">
<path d="M63.2199 9.44148L55.4088 1.68999C54.2708 0.605282 52.7544 0 51.1768 0C49.5986 0 48.0821 0.605282 46.9441 1.68999L40.9803 7.57031H40.9796C40.1227 8.41596 39.6624 9.57922 39.7101 10.7777L1.3856 48.8474C0.498541 49.729 0 50.9236 0 52.1694C0 53.4152 0.498541 54.6097 1.3856 55.4914L2.69404 56.8278C2.64774 57.1054 2.62224 57.3864 2.61687 57.6674C2.61419 58.914 3.1134 60.1098 4.00247 60.9894C4.1011 61.068 4.20846 61.1359 4.32187 61.1919C5.16328 61.933 6.24419 62.3498 7.36879 62.3678C7.62913 62.3392 7.88612 62.2906 8.13842 62.2233L9.51597 63.5863C10.407 64.4899 11.6276 65 12.9018 65C14.1767 65 15.3972 64.4899 16.2883 63.5863L54.3036 25.9377C55.0028 25.7486 55.6402 25.3798 56.1502 24.8684L63.2299 17.8427C64.3477 16.724 64.9825 15.2172 65 13.6423C64.9946 12.0622 64.3532 10.5499 63.2185 9.44192L63.2199 9.44148ZM3.42705 50.871L40.9047 13.6417L40.9819 13.7183L40.9812 13.7176C41.1469 13.8708 41.2409 14.0852 41.2409 14.3096C41.2409 14.534 41.1469 14.7484 40.9812 14.9016L36.9411 18.9487V18.9494C36.3016 19.5733 35.9413 20.4263 35.9406 21.3166C35.9393 21.6975 36.0178 22.075 36.1715 22.4239L4.15793 54.1933L3.42655 53.4674L3.42722 53.4681C3.07629 53.1252 2.87902 52.6577 2.87902 52.1697C2.87902 51.6816 3.07629 51.2135 3.42722 50.8712L3.42705 50.871ZM14.2005 61.5623V61.5629C13.857 61.9278 13.3766 62.1349 12.8733 62.1349C12.3694 62.1349 11.889 61.9278 11.5454 61.5629L10.853 60.8758L43.6395 28.3428V28.3421C44.2044 27.7835 44.2065 26.8759 43.6435 26.3145C43.0799 25.7538 42.1653 25.7518 41.6002 26.3111L8.68318 58.9617C8.33696 59.3106 7.86391 59.5064 7.37073 59.5064C6.87755 59.5064 6.40517 59.3106 6.05894 58.9617H6.03613C5.32354 58.2452 5.32354 57.0933 6.03613 56.3768L38.2678 24.4473C38.8556 24.6564 39.491 24.699 40.1023 24.5705C40.7136 24.4426 41.2772 24.149 41.7309 23.7221L49.7726 15.7417H49.7719C49.9779 15.5146 50.2732 15.3895 50.5805 15.3981C51.181 15.4334 51.6601 15.9088 51.6964 16.5055C51.7051 16.8098 51.5783 17.1034 51.3501 17.3072L49.9652 18.7202H49.9645C49.1385 19.5232 48.6796 20.6273 48.695 21.7745C48.6769 22.9338 49.1352 24.0506 49.9645 24.8676C50.1813 25.09 50.4268 25.2831 50.6959 25.4402L14.2005 61.5623Z" fill="#5E4848"/>
</svg>
